<svg width="128" height="128" viewBox="0 0 128 128" fill="none" xmlns="http://www.w3.org/2000/svg">
<rect x="7" y="6" width="115" height="115" rx="57.5" fill="#00AD3B"/>
<g clip-path="url(#clip0)">
<path d="M71.9966 36.1194H47.8875C46.484 36.1194 45.1379 36.6836 44.1455 37.6878C43.153 38.692 42.5955 40.054 42.5955 41.4742V88.7436C42.5955 90.164 43.153 91.5259 44.1455 92.5301C45.1379 93.5343 46.484 94.0986 47.8875 94.0986C50.7243 94.0981 53.4833 93.1601 55.7451 91.4277C58.007 89.6954 59.648 87.2633 60.4188 84.5009L64.4101 70.1695C64.4413 70.0563 64.4462 69.9373 64.4243 69.8216C64.4023 69.7061 64.3543 69.5975 64.2838 69.5041C64.2133 69.4105 64.1224 69.3349 64.0181 69.283C63.9138 69.231 63.7991 69.2042 63.6829 69.2049H53.5513C53.4251 69.2064 53.3006 69.1758 53.1893 69.1158C53.0779 69.0558 52.9833 68.9685 52.9141 68.8618C52.8448 68.7551 52.8033 68.6324 52.7932 68.5054C52.7831 68.3781 52.8049 68.2504 52.8564 68.1339L62.1882 46.4938C62.2463 46.3582 62.3422 46.2427 62.4642 46.1614C62.5862 46.0801 62.7289 46.0365 62.875 46.036H74.4447C74.5703 46.0359 74.6937 46.0675 74.8039 46.128C74.9141 46.1885 75.0078 46.276 75.0762 46.3825C75.1443 46.4889 75.1852 46.611 75.1948 46.7376C75.2045 46.8641 75.1829 46.9911 75.1316 47.107L69.5406 60.0812C69.4893 60.197 69.4675 60.324 69.4772 60.4506C69.4868 60.5771 69.5277 60.6992 69.5961 60.8057C69.6642 60.9122 69.7578 60.9996 69.8681 61.0602C69.9783 61.1207 70.1019 61.1523 70.2273 61.1521H80.7792C80.9273 61.1514 81.0725 61.1949 81.1961 61.2773C81.32 61.3599 81.4169 61.4776 81.4748 61.6157C81.5328 61.7537 81.5489 61.9061 81.5214 62.0534C81.4939 62.2007 81.424 62.3365 81.3205 62.4439L65.218 79.3094C65.01 79.527 64.8704 79.8023 64.8171 80.1C64.7638 80.3979 64.7991 80.7051 64.9185 80.9827C65.0379 81.2603 65.2361 81.4957 65.4879 81.6591C65.7397 81.8228 66.0338 81.9069 66.333 81.9011H71.9887C77.9885 81.9011 83.7426 79.4893 87.9852 75.1963C92.2277 70.9036 94.6111 65.0811 94.6111 59.0102C94.6111 52.9406 92.2289 47.1195 87.988 42.8268C83.7473 38.5342 77.9952 36.1216 71.9966 36.1194Z" fill="white"/>
</g>
<defs>
<clipPath id="clip0">
<rect width="52.0238" height="60.2381" fill="white" transform="translate(42.5955 36.1194)"/>
</clipPath>
</defs>
</svg>
